<svg xmlns="http://www.w3.org/2000/svg" viewBox="0 0 60 60"><defs><style>.cls-1{fill:#188f53;}.cls-2{fill:#fff;fill-rule:evenodd;}</style></defs><title>facebook</title><g id="Layer_2" data-name="Layer 2"><g id="Layer_1-2" data-name="Layer 1"><path class="cls-1" d="M30,38l-1.31-1.15C24.06,32.78,21,30.09,21,26.8A4.83,4.83,0,0,1,26,22,5.47,5.47,0,0,1,30,23.82a5.47,5.47,0,0,1,4-1.82,4.83,4.83,0,0,1,5,4.8c0,3.29-3.06,6-7.7,10.06Z"/><rect width="60" height="60" rx="20"/><path class="cls-2" d="M27.73,25.29v2.35H26V30.5h1.73V39h3.55V30.5h2.39s.22-1.37.33-2.87H31.3v-2a.85.85,0,0,1,.77-.69H34V22H31.37C27.64,22,27.73,24.86,27.73,25.29Z"/></g></g></svg>