<svg xmlns="http://www.w3.org/2000/svg" viewBox="0 0 60 60"><defs><style>.cls-1{fill:#188f53;}.cls-2,.cls-3{fill:#fff;}.cls-2{fill-rule:evenodd;}</style></defs><title>instagramm</title><g id="Layer_2" data-name="Layer 2"><g id="Layer_1-2" data-name="Layer 1"><path class="cls-1" d="M30,38l-1.3-1.15c-4.64-4.07-7.7-6.76-7.7-10A4.83,4.83,0,0,1,26,22,5.47,5.47,0,0,1,30,23.82a5.47,5.47,0,0,1,4-1.82,4.83,4.83,0,0,1,5,4.8c0,3.29-3.06,6-7.69,10.06Z"/><rect width="60" height="60" rx="20"/><path class="cls-2" d="M26.63,21h6.75A5.63,5.63,0,0,1,39,26.63v6.75A5.62,5.62,0,0,1,33.38,39H26.63A5.63,5.63,0,0,1,21,33.38V26.63A5.63,5.63,0,0,1,26.63,21Zm6.75,16.31a3.93,3.93,0,0,0,3.93-3.93V26.63a3.93,3.93,0,0,0-3.93-3.94H26.63a3.93,3.93,0,0,0-3.94,3.94v6.75a3.93,3.93,0,0,0,3.94,3.93Z"/><path class="cls-2" d="M25,30a5,5,0,1,1,5,5A5,5,0,0,1,25,30Zm1.87,0A3.13,3.13,0,1,0,30,26.88,3.14,3.14,0,0,0,26.87,30Z"/><path class="cls-3" d="M34.33,25.67A.67.67,0,0,0,35,25a.67.67,0,0,0-1.34,0A.67.67,0,0,0,34.33,25.67Z"/></g></g></svg>