<svg xmlns="http://www.w3.org/2000/svg" viewBox="0 0 60 60"><defs><style>.cls-1{fill:#188f53;}.cls-2{fill:#fff;fill-rule:evenodd;}</style></defs><title>linkedin</title><g id="Layer_2" data-name="Layer 2"><g id="Layer_1-2" data-name="Layer 1"><path class="cls-1" d="M30,38l-1.3-1.15c-4.64-4.07-7.7-6.76-7.7-10A4.83,4.83,0,0,1,26,22,5.47,5.47,0,0,1,30,23.82a5.47,5.47,0,0,1,4-1.82,4.83,4.83,0,0,1,5,4.8c0,3.29-3.06,6-7.69,10.06Z"/><rect width="60" height="60" rx="20"/><path class="cls-2" d="M23,21H37a2,2,0,0,1,2,2V37a2,2,0,0,1-2,2H23a2,2,0,0,1-2-2V23A2,2,0,0,1,23,21Zm3,15a.5.5,0,0,0,.5-.5v-7A.5.5,0,0,0,26,28H24.5a.5.5,0,0,0-.5.5v7a.5.5,0,0,0,.5.5Zm-.75-9a1.5,1.5,0,1,1,1.5-1.5A1.5,1.5,0,0,1,25.25,27ZM35.5,36a.5.5,0,0,0,.5-.5V30.9a3.1,3.1,0,0,0-2.72-3.14A3,3,0,0,0,30.5,29.1v-.6A.5.5,0,0,0,30,28H28.5a.5.5,0,0,0-.5.5v7a.5.5,0,0,0,.5.5H30a.5.5,0,0,0,.5-.5V31.75a1.5,1.5,0,0,1,3,0V35.5a.5.5,0,0,0,.5.5Z"/></g></g></svg>