<svg xmlns="http://www.w3.org/2000/svg" xmlns:xlink="http://www.w3.org/1999/xlink" viewBox="0 0 160 40"><defs><style>.cls-1{fill:none;}.cls-2{clip-path:url(#clip-path);}.cls-3{fill:#b46aa7;}.cls-10,.cls-11,.cls-12,.cls-14,.cls-15,.cls-16,.cls-18,.cls-19,.cls-20,.cls-22,.cls-3,.cls-5,.cls-7,.cls-8{fill-rule:evenodd;}.cls-4,.cls-5{fill:#953589;}.cls-6,.cls-7{fill:#f4a60f;}.cls-8,.cls-9{fill:#e6372c;}.cls-10{fill:#36378c;}.cls-11{fill:#f9d613;}.cls-12{fill:#0f8d42;}.cls-13,.cls-14{fill:#ed7612;}.cls-15{fill:#496fad;}.cls-16,.cls-17{fill:#43a3ca;}.cls-18{fill:#ef8e12;}.cls-19{fill:#ed7836;}.cls-20,.cls-21{fill:#ea7899;}.cls-22,.cls-23{fill:#e94c83;}.cls-24{fill:#fff;}</style><clipPath id="clip-path" transform="translate(0 0)"><rect class="cls-1" width="160" height="40"/></clipPath></defs><title>Asset 1</title><g id="Layer_2" data-name="Layer 2"><g id="Layer_1-2" data-name="Layer 1"><g class="cls-2"><path class="cls-3" d="M10.68,25.48l-.58-.34a9.14,9.14,0,0,0-3.2-1.09,13.13,13.13,0,0,0-2.26-.14c-.39,0-.78,0-1.17,0a3.81,3.81,0,0,1-2.25-.76,2.85,2.85,0,0,1-1-1.58,1.16,1.16,0,0,1,0-.18c0-.43.2-.55.5-.58s.43,0,.65,0c.82,0,1.64-.07,2.45-.12a1.61,1.61,0,0,1,.44,0,.11.11,0,0,0,.08.05c.88.17,1.76.37,2.63.58,1,.24,2.09.52,3.13.81a5.21,5.21,0,0,1,1.14.42.72.72,0,0,1,.45.79,2.43,2.43,0,0,1-.17.6C11.2,24.47,10.93,25,10.68,25.48Z" transform="translate(0 0)"/><path class="cls-4" d="M16.57,24.27l0,0Z" transform="translate(0 0)"/><path class="cls-4" d="M18.51,22.39l-.12-.15C18,21.8,17.34,21,17.22,20.93A14.3,14.3,0,0,0,14,18.37l-.05,0H2.48a.74.74,0,0,0,.28.08,9.88,9.88,0,0,0,1.8.16c.63,0,1.27.07,1.9.13a13.53,13.53,0,0,1,2.6.48,13.9,13.9,0,0,1,7.36,4.91c0,.06.07.14.15.17S18.08,22.78,18.51,22.39Z" transform="translate(0 0)"/><path class="cls-5" d="M10.67,25.48c.25-.51.53-1,.76-1.54a2.43,2.43,0,0,0,.17-.6.75.75,0,0,0-.45-.8A5.74,5.74,0,0,0,10,22.13c-1-.29-2.08-.58-3.14-.82-.87-.2-1.74-.4-2.62-.58,0,0-.07,0-.08-.05a11.89,11.89,0,0,1,1.19,0,18.2,18.2,0,0,1,1.81.19,12.19,12.19,0,0,1,7.23,3.72,7.88,7.88,0,0,1,.86,1.05l-.18.18c-.6.63-1.22,1.24-1.83,1.86-.06.05-.1.12-.18.13s-.07-.06-.1-.1a9.55,9.55,0,0,0-2.24-2.2Z" transform="translate(0 0)"/><path class="cls-6" d="M30.93,18.4a11.76,11.76,0,0,1-.38-2.89,14.52,14.52,0,0,1,.23-2.71,2.52,2.52,0,0,1-.8-.65,1.92,1.92,0,0,1-.33-.46.58.58,0,0,0-.19.16,5.08,5.08,0,0,1-.43.38,2,2,0,0,1-.05.65,13.16,13.16,0,0,0-.15,2.94,15.8,15.8,0,0,0,.29,2.05c0,.13.13.49.21.77.5,0,1.24-.06,1.64-.05A1.06,1.06,0,0,0,30.93,18.4Z" transform="translate(0 0)"/><path class="cls-7" d="M32.27,18.59h-.22a5.46,5.46,0,0,1-.26-1,10.25,10.25,0,0,1-.27-2.34,6.64,6.64,0,0,1,.24-1.78,1,1,0,0,1,0-.1,3,3,0,0,1,.89.46.91.91,0,0,1,.37.88,3.18,3.18,0,0,1-.13.51,13.18,13.18,0,0,0-.46,2.07C32.41,17.75,32.34,18.17,32.27,18.59Z" transform="translate(0 0)"/><path class="cls-8" d="M33.49,29.18a1.4,1.4,0,0,1-1.09.63,9.48,9.48,0,0,0-2,.3,4.75,4.75,0,0,0-3.05,2.54,9.68,9.68,0,0,0-.83,2.52c-.14.76-.2,1.54-.33,2.3a2.89,2.89,0,0,1-1.82,2.34,1.21,1.21,0,0,1-.32.11.27.27,0,0,1-.34-.23,1.33,1.33,0,0,1,0-.4l.12-1.71c.05-.62.11-1.24.2-1.86a12,12,0,0,1,1.47-4.54,11,11,0,0,1,1.71-2.24,5.58,5.58,0,0,1,2.67-1.51,5.18,5.18,0,0,1,1.8-.09,5.24,5.24,0,0,0,.54.51l1,1A1.83,1.83,0,0,0,33.49,29.18Z" transform="translate(0 0)"/><path class="cls-8" d="M28.1,34.76A6.26,6.26,0,0,1,28.91,33a3.59,3.59,0,0,1,3.57-1.53,6.42,6.42,0,0,1,.74.14,1.66,1.66,0,0,1,.37.14.56.56,0,0,1,.31.58l0,.18a2.63,2.63,0,0,1-.41.92,1.47,1.47,0,0,1-1.05.63,4.63,4.63,0,0,0-.62.09A2.25,2.25,0,0,0,30,35.88a9.91,9.91,0,0,0-.25,1.51,6.15,6.15,0,0,1-.18,1,2.33,2.33,0,0,1-1.37,1.55A.9.9,0,0,1,28,40a.28.28,0,0,1-.37-.22A10.25,10.25,0,0,1,28.1,34.76Z" transform="translate(0 0)"/><path class="cls-9" d="M27.87,24a.78.78,0,0,1-.1-.15,3,3,0,0,0-.72.24,9,9,0,0,0-3,2.06,14.84,14.84,0,0,0-1.44,1.73l-.06.11a5.34,5.34,0,0,1,.05.69v5.1c0,.07,0,.14,0,.21s0-.06,0-.09a13.61,13.61,0,0,1,.75-2.26,11.76,11.76,0,0,1,3.12-4.29,6.43,6.43,0,0,1,2.74-1.48l.43-.1c-.09-.09-.2-.17-.23-.2A13.86,13.86,0,0,1,27.87,24Z" transform="translate(0 0)"/><path class="cls-10" d="M17.08,29.46a10.71,10.71,0,0,1,.32,1.47c.14.94.22,1.88.37,2.81.08.52-.12.73-.64.73a2.44,2.44,0,0,1-2.33-1.58,3.48,3.48,0,0,1-.22-.78l-.24-1.3a.56.56,0,0,0,.21-.09c.25-.13.49-.28.73-.4l1.41-.71A2.26,2.26,0,0,1,17.08,29.46Z" transform="translate(0 0)"/><path class="cls-10" d="M19.92,34.51a4.71,4.71,0,0,1,.2.76c.25,1,.48,2.11.69,3.17,0,.23.07.47.12.7a2.8,2.8,0,0,1-1.27.62.54.54,0,0,1-.18,0,.28.28,0,0,1-.29-.23.77.77,0,0,1,0-.37c.22-1.52.45-3,.7-4.55A.3.3,0,0,1,19.92,34.51Z" transform="translate(0 0)"/><path class="cls-11" d="M34.45,18.59a4.51,4.51,0,0,1-.36-1.13,5,5,0,0,1,.19-2.8,1.37,1.37,0,0,1,.16-.32c0-.05.08-.1.15-.08a.49.49,0,0,1,.41.29c.13.32.27.64.37,1a2.26,2.26,0,0,1,.1.93,3.51,3.51,0,0,0,.38,2l.06.13Z" transform="translate(0 0)"/><path class="cls-11" d="M32.27,18.59c.07-.42.14-.84.2-1.26a13.18,13.18,0,0,1,.46-2.07,3.18,3.18,0,0,0,.13-.51.91.91,0,0,0-.37-.88,3.27,3.27,0,0,0-.89-.46,3.51,3.51,0,0,1,.45-1c.07-.13.09-.13.2,0a2,2,0,0,1,.78,1.3,4.58,4.58,0,0,1,0,1.11,12.61,12.61,0,0,0-.06,2.3,6.46,6.46,0,0,0,.31,1.45s0,.06,0,.09Z" transform="translate(0 0)"/><path class="cls-11" d="M30.78,12.8a2.52,2.52,0,0,1-.8-.65,1.92,1.92,0,0,1-.33-.46,5.88,5.88,0,0,1,.53-.59c.59-.67,1.23-1.3,1.87-1.92a1.37,1.37,0,0,1,.37.26.28.28,0,0,1,.08.39,1.91,1.91,0,0,1-.39.62,4.5,4.5,0,0,0-1.29,2.28A.25.25,0,0,1,30.78,12.8Z" transform="translate(0 0)"/><path class="cls-12" d="M22.64,10.28a15,15,0,0,0,0-1.64v-.5c.32.2.63.42.95.61a9.91,9.91,0,0,0,3.61,1.3,4.34,4.34,0,0,0,3.38-.78A2.6,2.6,0,0,1,31,9a.77.77,0,0,1,.63,0,1.9,1.9,0,0,1,.43.21c-.65.62-1.28,1.26-1.88,1.93a7.63,7.63,0,0,0-.53.59.7.7,0,0,0-.19.15,4,4,0,0,1-.43.39.56.56,0,0,0-.44-.19l-1.11,0a6.82,6.82,0,0,1-.79-.1,12,12,0,0,1-3.44-1.25A4.08,4.08,0,0,1,22.64,10.28Z" transform="translate(0 0)"/><path class="cls-12" d="M30,6.61a5.83,5.83,0,0,1,.7.49c.07,0,.09.07,0,.15s-.22.34-.33.51a1.33,1.33,0,0,1-.35.36,4.3,4.3,0,0,1-3,.78A7.88,7.88,0,0,1,24.22,8a10.54,10.54,0,0,1-1.51-1l-.12-.12c0-.13,0-.27,0-.41V4.67c.25.23.48.49.74.71A7.67,7.67,0,0,0,26.48,7l.07,0a1.18,1.18,0,0,0,.41.59.68.68,0,0,0,.53.15,2.09,2.09,0,0,0,.76-.23c.4-.2.81-.39,1.21-.61A2.1,2.1,0,0,0,30,6.61Z" transform="translate(0 0)"/><path class="cls-12" d="M22.57,1.84a4.51,4.51,0,0,1,.57.31,12,12,0,0,1,1.54,1.1,4.44,4.44,0,0,0,.95.65c.05.27.14.53.21.8s.22.7.29,1.07a4.42,4.42,0,0,1-2.07-.95,10.67,10.67,0,0,1-1.5-1.58,1.85,1.85,0,0,0,0-.23Z" transform="translate(0 0)"/><path class="cls-12" d="M26.13,5.77c-.07-.37-.2-.71-.29-1.06s-.16-.53-.21-.81a2.15,2.15,0,0,0,1.07,0A2.05,2.05,0,0,1,28,3.93a1.69,1.69,0,0,1,.57.42.79.79,0,0,1,.13.26.38.38,0,0,1-.15.46c-.17.12-.32.27-.49.4a1.82,1.82,0,0,1-1.35.39A4.21,4.21,0,0,1,26.13,5.77Z" transform="translate(0 0)"/><path class="cls-12" d="M30,6.61a2.55,2.55,0,0,1-.5.3l-1.21.61a2.57,2.57,0,0,1-.76.23A.73.73,0,0,1,27,7.59,1.13,1.13,0,0,1,26.55,7L27,7a3.22,3.22,0,0,0,1.58-.36,3.13,3.13,0,0,1,.6-.24A.94.94,0,0,1,30,6.61Z" transform="translate(0 0)"/><path class="cls-13" d="M35.35,27.06c-.35-.62-.71-1.23-1.06-1.84A8.06,8.06,0,0,1,33.71,24a1.62,1.62,0,0,1-.14-.75,1.56,1.56,0,0,0-.16-.2,12.28,12.28,0,0,1-2.06-3.42c-.14-.35-.25-.72-.38-1.08-.41,0-1.14.05-1.64.05,0,0,0,0,0,0s0,.17.06.23a.74.74,0,0,0,0,.12,19.3,19.3,0,0,0,1.36,3.22l.58,1c0,.06.08.1.08.18a.65.65,0,0,1-.28,0,9.84,9.84,0,0,0-3.2.3.48.48,0,0,0-.2.07l.11.16a14.64,14.64,0,0,0,1.59,1.56s.14.11.23.2a6.44,6.44,0,0,1,3.84.38,11.79,11.79,0,0,1,1.63,1.08,1.78,1.78,0,0,0,.36.25C35.54,27.27,35.42,27.17,35.35,27.06Z" transform="translate(0 0)"/><path class="cls-14" d="M34.06,22.59a7.78,7.78,0,0,1-.7-1,13.07,13.07,0,0,1-1.29-2.88s0-.08,0-.12h1.46a9.39,9.39,0,0,0,.63,1.32,9.93,9.93,0,0,0,1.51,1.85,1.16,1.16,0,0,1,.18.2l-.38.12A7,7,0,0,0,34.06,22.59Z" transform="translate(0 0)"/><path class="cls-14" d="M34.45,18.59h1.46a8.44,8.44,0,0,0,.91,1.07,2.36,2.36,0,0,1,.74,1.77.36.36,0,0,1,0,.1,1,1,0,0,0-.54.14,4.27,4.27,0,0,1-1-.73,6.89,6.89,0,0,1-1.53-2.17A.55.55,0,0,1,34.45,18.59Z" transform="translate(0 0)"/><path class="cls-14" d="M33.49,29.18a1.52,1.52,0,0,1-.32-.3c-.35-.34-.69-.68-1-1a5.27,5.27,0,0,1-.55-.51,5.63,5.63,0,0,1,1.16.2l.46.13a.74.74,0,0,1,.57.92A1.17,1.17,0,0,1,33.49,29.18Z" transform="translate(0 0)"/><path class="cls-15" d="M15.63,12c-.25-.3-.54-.56-.81-.85.2-.33.42-.64.61-1a7.59,7.59,0,0,0,.88-2.74.74.74,0,0,1,0-.14.33.33,0,0,1,.21.07,5,5,0,0,0,.92.33.81.81,0,0,0,.84-.25,2.2,2.2,0,0,0,.37-.65c.17-.47.34-.93.47-1.42a.14.14,0,0,1,.08-.09c.74.69,1.53,1.33,2.28,2,.34.32.72.59,1.09.89,0,.17,0,.33,0,.5a15,15,0,0,1,0,1.64.64.64,0,0,1-.18-.1c-.38-.24-.75-.5-1.12-.78a25.72,25.72,0,0,1-2.48-2.19c-.05,0-.08-.1-.16-.1,0,.31-.05.6-.08.9s0,.62-.09.92a9.64,9.64,0,0,1-1.59,3.91,1.49,1.49,0,0,1-.12.14l-.17-.14Z" transform="translate(0 0)"/><path class="cls-15" d="M12.22,4.94a1,1,0,0,1,.4.21c.61.36,1.2.73,1.82,1.06l.27.16a5.47,5.47,0,0,1-.36,1.84,6,6,0,0,1-.7,1.38.49.49,0,0,1-.15.17q-1-1-2-2.07a.51.51,0,0,1,.07-.15,4.7,4.7,0,0,0,.67-2.31A2.64,2.64,0,0,1,12.22,4.94Z" transform="translate(0 0)"/><path class="cls-15" d="M10.29,3.6A3.4,3.4,0,0,1,10,6.16a.18.18,0,0,1,0,.07L8.2,4.47l-.67-.63a4.32,4.32,0,0,0-.2-1.13,3.52,3.52,0,0,1-.16-1,.27.27,0,0,1,0-.2A6,6,0,0,1,7.81,2l1.12.76,1.22.84A.24.24,0,0,0,10.29,3.6Z" transform="translate(0 0)"/><path class="cls-15" d="M22.6,4.67V6.45c0,.14,0,.28,0,.42A4.79,4.79,0,0,1,22,6.41a16.71,16.71,0,0,1-2-2.22,6.4,6.4,0,0,1-.4-.51c0-.06,0-.11,0-.16.06-.21.1-.42.15-.62a1.91,1.91,0,0,1,1.4.39,5.49,5.49,0,0,1,.61.57C22.1,4.12,22.36,4.39,22.6,4.67Z" transform="translate(0 0)"/><path class="cls-15" d="M22.57,1.84V3a1.85,1.85,0,0,1,0,.23c-.34-.37-.65-.77-1-1.15a.22.22,0,0,1,.14-.34l.2-.05A.7.7,0,0,1,22.57,1.84Z" transform="translate(0 0)"/><path class="cls-16" d="M19.24,5.24a.14.14,0,0,0-.08.09c-.13.48-.3,1-.47,1.42a2.2,2.2,0,0,1-.37.65.81.81,0,0,1-.84.25,4.43,4.43,0,0,1-.92-.34.39.39,0,0,0-.21-.06c0-.33,0-.66,0-1A10.1,10.1,0,0,0,15.66,3a7.58,7.58,0,0,1-.42-1.3c0-.1,0-.2-.06-.3A1.38,1.38,0,0,1,15.92.05a.44.44,0,0,1,.54.1,1.3,1.3,0,0,1,.3.47l.8,2A7.29,7.29,0,0,0,19.2,5.19.1.1,0,0,1,19.24,5.24Z" transform="translate(0 0)"/><path class="cls-16" d="M12.22,4.94l-.06-.58a6.36,6.36,0,0,0-.47-1.72,2.85,2.85,0,0,1-.12-.31,1.8,1.8,0,0,1,.47-2c.38-.41.75-.35,1.05.12a7.45,7.45,0,0,1,.37.75c.3.61.59,1.23.84,1.87a5.87,5.87,0,0,1,.4,1.8c0,.4.05.81,0,1.21a.53.53,0,0,1,0,.25l-.28-.16c-.62-.33-1.21-.7-1.81-1.06A1.14,1.14,0,0,0,12.22,4.94Z" transform="translate(0 0)"/><path class="cls-16" d="M17.08,29.46a2.26,2.26,0,0,0-.39.15l-1.41.71c-.25.12-.49.27-.73.4a.56.56,0,0,1-.21.09c-.1-.33-.19-.67-.3-1A8.66,8.66,0,0,0,13.16,28a.32.32,0,0,1-.09-.16c.09,0,.13-.08.18-.13.62-.62,1.24-1.23,1.84-1.86.05-.06.12-.12.18-.18a5.1,5.1,0,0,1,.55.82,10.8,10.8,0,0,1,1.23,2.83Z" transform="translate(0 0)"/><path class="cls-17" d="M22.6,33.73v-5.1c0-.23,0-.46,0-.69a5.28,5.28,0,0,0-.84,1.48,29.9,29.9,0,0,0-2-5.16c-1.15-1.84-1.23-1.91-1.2-1.87-.43.39-1.93,1.87-1.94,1.88a.79.79,0,0,0,.15.25,25.44,25.44,0,0,1,3.2,10,5,5,0,0,1,.2.76c.25,1,.48,2.11.69,3.17,0,.23.07.47.12.7a.48.48,0,0,0,.16-.13,2.74,2.74,0,0,0,.72-1.11,10,10,0,0,0,.29-1.07c.13-.59.19-1.19.29-1.77.07-.38.15-.74.22-1.11C22.61,33.87,22.6,33.8,22.6,33.73Z" transform="translate(0 0)"/><path class="cls-16" d="M10.29,3.6a.24.24,0,0,1-.14-.05L8.93,2.71,7.81,2a6,6,0,0,0-.62-.41,1.33,1.33,0,0,1,1-1.22,1.35,1.35,0,0,1,.29,0,.71.71,0,0,1,.59.3,6.61,6.61,0,0,1,.58,1.16A12.22,12.22,0,0,1,10.29,3.6Z" transform="translate(0 0)"/><path class="cls-16" d="M19.83,2.9c0,.2-.09.41-.15.61s0,.11,0,.16c-.18-.19-.33-.41-.51-.63A2.06,2.06,0,0,1,19.83,2.9Z" transform="translate(0 0)"/><path class="cls-18" d="M34.06,22.59a7,7,0,0,1,1.39-.51l.38-.12a2.77,2.77,0,0,1,1.22,2.3c0,.12,0,.24,0,.36s-.06.11-.15.09l-.59-.22a5.47,5.47,0,0,1-1.52-1.1A5.92,5.92,0,0,1,34.06,22.59Z" transform="translate(0 0)"/><path class="cls-18" d="M35.52,27.42c0-.15-.1-.25-.17-.37-.35-.61-.71-1.22-1.06-1.84A7.49,7.49,0,0,1,33.71,24a1.62,1.62,0,0,1-.14-.75l.15.14a12.92,12.92,0,0,0,1.16,1.18,7.34,7.34,0,0,1,1,1A3.22,3.22,0,0,1,36.44,27a1.5,1.5,0,0,1,0,.73c0,.06,0,.09-.12.08a1.05,1.05,0,0,1-.69-.31s0,0,0,0Z" transform="translate(0 0)"/><path class="cls-18" d="M37,21.67a1,1,0,0,1,.54-.14,1.53,1.53,0,0,1,0,.42A2,2,0,0,1,37,21.67Z" transform="translate(0 0)"/><path class="cls-19" d="M35.53,27.42a0,0,0,0,1,0,0S35.53,27.45,35.53,27.42Z" transform="translate(0 0)"/><path class="cls-20" d="M10.89,11.94a5.21,5.21,0,0,1-.94.4,23.71,23.71,0,0,1-2.89.79l-1,.24A.66.66,0,0,1,5.29,13a1.74,1.74,0,0,1,.06-1.31A2.48,2.48,0,0,1,7.1,10.23l1-.24a7.86,7.86,0,0,0,1.49-.56.35.35,0,0,0,.06.17c.25.43.51.86.75,1.3S10.74,11.58,10.89,11.94Z" transform="translate(0 0)"/><path class="cls-20" d="M8.45,7.8a3.61,3.61,0,0,1-1.09.46c-.64.17-1.3.26-2,.37L4,8.87a.54.54,0,0,1-.72-.48,1.92,1.92,0,0,1,.88-2.13,3.06,3.06,0,0,1,1.17-.39,3.76,3.76,0,0,0,1.48-.56,1.47,1.47,0,0,0,.1.13c.52.75,1,1.48,1.53,2.24A.18.18,0,0,1,8.45,7.8Z" transform="translate(0 0)"/><path class="cls-21" d="M11.55,13.75a1.16,1.16,0,0,1-.24.13,10.42,10.42,0,0,1-2.71,1,19.27,19.27,0,0,1-2.4.4,30.48,30.48,0,0,1-3.62.13,12.76,12.76,0,0,1-1.91,0,2.73,2.73,0,0,0-.41,0c-.21,0-.23.08-.25.29a1.76,1.76,0,0,0,.53,1.36H.75l1.68-.29c.59-.1,1.17-.22,1.76-.35l2.62-.57.35-.08.43-.11.69-.17c.5-.12,1-.26,1.49-.4A5.57,5.57,0,0,0,11,14.63l.06,0,0,0,0,0,0,0h0l.05,0h0a.1.1,0,0,0,0,0h0l0,0h0a1.24,1.24,0,0,0,.23-.56v0C11.56,13.78,11.56,13.75,11.55,13.75Z" transform="translate(0 0)"/><path class="cls-21" d="M11.23,14.47h0Z" transform="translate(0 0)"/><path class="cls-21" d="M11.28,14.43h0Z" transform="translate(0 0)"/><path class="cls-21" d="M11.12,14.55l0,0Z" transform="translate(0 0)"/><path class="cls-21" d="M11.18,14.51h0Z" transform="translate(0 0)"/><path class="cls-21" d="M11.06,14.59l-.06,0Z" transform="translate(0 0)"/><path class="cls-22" d="M11.46,7.69c.69.69,1.38,1.38,2,2.07a1.89,1.89,0,0,1-.38.5,7.1,7.1,0,0,1-2.05,1.6l-.19.08a10.24,10.24,0,0,0-.54-1c-.24-.44-.5-.87-.74-1.3a.31.31,0,0,1-.07-.18,8.66,8.66,0,0,0,1-.7,5.26,5.26,0,0,0,.8-.9A.45.45,0,0,1,11.46,7.69Z" transform="translate(0 0)"/><path class="cls-22" d="M7.53,3.84l.67.63L10,6.23A2.28,2.28,0,0,1,9.49,7a3.69,3.69,0,0,1-1,.8l-.08,0a.18.18,0,0,0,0-.12c-.49-.75-1-1.49-1.53-2.23a1.47,1.47,0,0,0-.1-.13,2,2,0,0,0,.69-1C7.49,4.14,7.51,4,7.53,3.84Z" transform="translate(0 0)"/><path class="cls-23" d="M16.64,12.84l-1-.88c-.25-.3-.54-.56-.81-.85l-.13.14a7.63,7.63,0,0,1-2.26,2l-.88.49s0,0,0,.08a1.2,1.2,0,0,1-.23.56h0l0,0h0l0,0h0l-.05,0h0l0,0,0,0,0,0-.06,0a5.57,5.57,0,0,1-1.23.47c-.49.15-1,.28-1.49.4l-.69.17-.43.11-.35.08-2.62.57c-.59.13-1.17.25-1.76.35l-1.68.29H.54a2.47,2.47,0,0,0,.64.65,3.31,3.31,0,0,0,1.3.61H12.73v-.66a4.59,4.59,0,0,0-.49-.26,1.68,1.68,0,0,1-.46-.33c-.07-.06-.06-.11,0-.17a1.85,1.85,0,0,1,.48-.35l1-.49a11.31,11.31,0,0,0,3-2.34,4.36,4.36,0,0,0,.6-.76Z" transform="translate(0 0)"/><path class="cls-22" d="M12.74,17.68a9,9,0,0,1,1.17.66H12.74Z" transform="translate(0 0)"/><path class="cls-24" d="M57.44,14a.34.34,0,0,1,.39.38V16c0,.25-.13.37-.39.37H50a4.24,4.24,0,0,0-1.1.12,1.52,1.52,0,0,0-.7.37,1.64,1.64,0,0,0-.37.72,5.14,5.14,0,0,0-.11,1.13v.34h9.64a.34.34,0,0,1,.38.38v1.35a.34.34,0,0,1-.38.38H47.71v4.46a.32.32,0,0,1-.37.37H45.49c-.27,0-.4-.12-.4-.37v-7.1a7.1,7.1,0,0,1,.27-2.1A3,3,0,0,1,46.2,15a3.5,3.5,0,0,1,1.48-.79A8.3,8.3,0,0,1,49.89,14Z" transform="translate(0 0)"/><path class="cls-24" d="M61.4,14a.33.33,0,0,1,.37.38v6.84a5.11,5.11,0,0,0,.11,1.14,1.64,1.64,0,0,0,.37.72,1.47,1.47,0,0,0,.7.37,4.24,4.24,0,0,0,1.1.12h7a.32.32,0,0,1,.37.37v1.68c0,.26-.12.38-.37.38H64a8.78,8.78,0,0,1-2.21-.24A3.33,3.33,0,0,1,60.26,25a3.13,3.13,0,0,1-.84-1.4,7.14,7.14,0,0,1-.27-2.1v-7.1c0-.25.13-.38.4-.38Z" transform="translate(0 0)"/><path class="cls-24" d="M70.53,14a.46.46,0,0,1,.41.21l4.58,6.18,4.61-6.18a.46.46,0,0,1,.41-.21h2.25a.2.2,0,0,1,.19.11.22.22,0,0,1,0,.23l-6.15,8v3.29a.33.33,0,0,1-.38.38H74.56c-.26,0-.39-.12-.39-.38V22.33l-6.09-8a.22.22,0,0,1,0-.23.18.18,0,0,1,.19-.11Z" transform="translate(0 0)"/><path class="cls-24" d="M86.18,14a.34.34,0,0,1,.38.38v6.84a5.11,5.11,0,0,0,.11,1.14,1.64,1.64,0,0,0,.37.72,1.43,1.43,0,0,0,.69.37,4.32,4.32,0,0,0,1.11.12h6.94a.33.33,0,0,1,.38.37v1.68a.33.33,0,0,1-.38.38h-7a8.72,8.72,0,0,1-2.21-.24A3.42,3.42,0,0,1,85,25a3.23,3.23,0,0,1-.84-1.4,7.17,7.17,0,0,1-.26-2.1v-7.1a.34.34,0,0,1,.39-.38Z" transform="translate(0 0)"/><path class="cls-24" d="M99.61,14a.33.33,0,0,1,.37.38V25.62c0,.26-.12.38-.37.38H97.75c-.26,0-.39-.12-.39-.38V14.38a.34.34,0,0,1,.39-.38Z" transform="translate(0 0)"/><path class="cls-24" d="M115.27,14a.33.33,0,0,1,.38.38v1.68c0,.26-.12.39-.38.39h-8.58a4.82,4.82,0,0,0-1.11.11,1.44,1.44,0,0,0-.69.38,1.42,1.42,0,0,0-.37.71,4.54,4.54,0,0,0-.11,1.13v2.47a4.58,4.58,0,0,0,.11,1.14,1.49,1.49,0,0,0,.37.72,1.37,1.37,0,0,0,.69.38,4.82,4.82,0,0,0,1.11.11h5.65a.83.83,0,0,0,.65-.23,1.21,1.21,0,0,0,.21-.81V21.17c0-.15-.07-.22-.21-.22h-5a.35.35,0,0,1-.38-.4V19.27c0-.27.13-.4.38-.4h7.15a.45.45,0,0,1,.51.52v4a2.94,2.94,0,0,1-.55,2,2,2,0,0,1-1.57.59h-6.93a8.78,8.78,0,0,1-2.21-.24,3.38,3.38,0,0,1-1.48-.78,3.17,3.17,0,0,1-.84-1.4,7.14,7.14,0,0,1-.27-2.1V18.53a7.1,7.1,0,0,1,.27-2.1,3.1,3.1,0,0,1,.84-1.39,3.44,3.44,0,0,1,1.48-.79,8.3,8.3,0,0,1,2.21-.25Z" transform="translate(0 0)"/><path class="cls-24" d="M119.7,14a.33.33,0,0,1,.37.38v4.45h8V14.38a.33.33,0,0,1,.38-.38h1.85a.34.34,0,0,1,.39.38V25.62c0,.26-.13.38-.39.38h-1.85a.33.33,0,0,1-.38-.38V21.06h-8v4.56c0,.26-.12.38-.37.38h-1.85c-.27,0-.4-.12-.4-.38V14.38c0-.25.13-.38.4-.38Z" transform="translate(0 0)"/><path class="cls-24" d="M145.69,14a.34.34,0,0,1,.39.38v1.68a.34.34,0,0,1-.39.39H140.3v9.17a.33.33,0,0,1-.38.38h-1.86a.33.33,0,0,1-.38-.38V16.45h-5.39a.34.34,0,0,1-.39-.39V14.38a.34.34,0,0,1,.39-.38Z" transform="translate(0 0)"/><path class="cls-24" d="M159.18,14a.33.33,0,0,1,.37.38V16a.32.32,0,0,1-.37.37h-8.59a.88.88,0,0,0-.71.26,1.14,1.14,0,0,0-.2.7v.59c0,.64.3,1,.89,1H157a3,3,0,0,1,2.25.76,3,3,0,0,1,.75,2.18v1.38a2.81,2.81,0,0,1-.74,2A3.07,3.07,0,0,1,157,26h-9.49c-.27,0-.4-.13-.4-.38V24c0-.25.13-.37.4-.37h9a.86.86,0,0,0,.7-.26,1.06,1.06,0,0,0,.21-.7V22q0-1-.9-1h-6.42a3,3,0,0,1-2.25-.77,3,3,0,0,1-.76-2.18V16.8a2.83,2.83,0,0,1,.74-2,3.07,3.07,0,0,1,2.3-.77Z" transform="translate(0 0)"/></g></g></g></svg>