<svg xmlns="http://www.w3.org/2000/svg" viewBox="0 0 208 53.01"><defs><style>.cls-1{fill:#b46aa7;}.cls-1,.cls-10,.cls-12,.cls-13,.cls-14,.cls-16,.cls-17,.cls-18,.cls-20,.cls-3,.cls-5,.cls-6,.cls-8,.cls-9{fill-rule:evenodd;}.cls-2,.cls-3{fill:#953589;}.cls-4,.cls-5{fill:#f4a60f;}.cls-6,.cls-7{fill:#e6372c;}.cls-8{fill:#36378c;}.cls-9{fill:#f9d613;}.cls-10{fill:#0f8d42;}.cls-11,.cls-12{fill:#ed7612;}.cls-13{fill:#496fad;}.cls-14,.cls-15{fill:#43a3ca;}.cls-16{fill:#ef8e12;}.cls-17{fill:#ed7836;}.cls-18,.cls-19{fill:#ea7899;}.cls-20,.cls-21{fill:#e94c83;}.cls-22{fill:#7a1a89;}</style></defs><title>logo_footer</title><g id="Layer_2" data-name="Layer 2"><g id="Layer_1-2" data-name="Layer 1"><path class="cls-1" d="M13.87,33.76l-.75-.45A11.61,11.61,0,0,0,9,31.86,16.12,16.12,0,0,0,6,31.69c-.51,0-1,0-1.53,0a4.84,4.84,0,0,1-2.92-1A3.82,3.82,0,0,1,.21,28.6a1.09,1.09,0,0,1,0-.25c-.06-.56.25-.73.64-.77a8.06,8.06,0,0,1,.85,0c1.06,0,2.13-.1,3.19-.16a1.56,1.56,0,0,1,.57,0c0,.05,0,.06.1.07,1.15.23,2.28.49,3.42.76,1.37.32,2.72.7,4.07,1.08a7.74,7.74,0,0,1,1.48.55,1,1,0,0,1,.59,1.05,3.65,3.65,0,0,1-.22.8C14.56,32.42,14.2,33.08,13.87,33.76Z"/><path class="cls-2" d="M21.54,32.16l0,0Z"/><path class="cls-2" d="M24.06,29.68a2,2,0,0,0-.16-.21c-.45-.58-1.36-1.6-1.51-1.74a19.43,19.43,0,0,0-4.24-3.39l-.07,0H3.23a1.15,1.15,0,0,0,.36.11,15.3,15.3,0,0,0,2.34.21c.82,0,1.65.08,2.47.16a17.68,17.68,0,0,1,3.38.64,18,18,0,0,1,9.56,6.51c.06.07.1.18.2.22S23.51,30.19,24.06,29.68Z"/><path class="cls-3" d="M13.87,33.77c.33-.68.69-1.35,1-2.05a3.07,3.07,0,0,0,.23-.8,1,1,0,0,0-.59-1.05A6.6,6.6,0,0,0,13,29.32c-1.35-.39-2.71-.76-4.07-1.08C7.8,28,6.67,27.7,5.52,27.47c0,0-.08,0-.1-.07.51,0,1,0,1.55,0,.79,0,1.57.13,2.35.25a15.73,15.73,0,0,1,9.4,4.93A10.11,10.11,0,0,1,19.84,34l-.24.23c-.77.84-1.58,1.65-2.38,2.46-.07.07-.12.17-.23.18s-.09-.08-.13-.13a12.45,12.45,0,0,0-2.92-2.92A.46.46,0,0,0,13.87,33.77Z"/><path class="cls-4" d="M40.21,24.38a16.56,16.56,0,0,1-.5-3.83A18.79,18.79,0,0,1,40,17,3.48,3.48,0,0,1,39,16.1a2.55,2.55,0,0,1-.42-.61.64.64,0,0,0-.25.21c-.19.17-.36.36-.56.51a2.43,2.43,0,0,1-.07.85,17.57,17.57,0,0,0-.19,3.9,19,19,0,0,0,.38,2.71c0,.18.17.65.27,1,.65,0,1.61-.07,2.13-.07A1,1,0,0,0,40.21,24.38Z"/><path class="cls-5" d="M42,24.62h-.28a7.8,7.8,0,0,1-.35-1.28,14,14,0,0,1-.34-3.1,8.94,8.94,0,0,1,.31-2.36.61.61,0,0,1,.05-.12,3.35,3.35,0,0,1,1.15.61A1.19,1.19,0,0,1,43,19.54a3.87,3.87,0,0,1-.17.67A17.27,17.27,0,0,0,42.22,23Z"/><path class="cls-6" d="M43.53,38.67a1.79,1.79,0,0,1-1.41.83,12.58,12.58,0,0,0-2.66.4,6.24,6.24,0,0,0-4,3.36,13,13,0,0,0-1.08,3.34c-.19,1-.26,2-.43,3.06a3.85,3.85,0,0,1-2.36,3.1,1.51,1.51,0,0,1-.41.13.36.36,0,0,1-.45-.3,1.83,1.83,0,0,1,0-.52c.05-.77.1-1.52.16-2.28s.14-1.64.26-2.46a16.08,16.08,0,0,1,1.9-6,14.43,14.43,0,0,1,2.23-3,7.16,7.16,0,0,1,3.48-2,6.51,6.51,0,0,1,2.33-.12,6.31,6.31,0,0,0,.7.67c.45.46.89.92,1.34,1.37A2.59,2.59,0,0,0,43.53,38.67Z"/><path class="cls-6" d="M36.54,46.06a7.91,7.91,0,0,1,1.05-2.33,4.62,4.62,0,0,1,4.63-2,8.14,8.14,0,0,1,1,.19,2.22,2.22,0,0,1,.49.18.78.78,0,0,1,.4.77c0,.08,0,.16,0,.24a3.29,3.29,0,0,1-.53,1.21,1.93,1.93,0,0,1-1.36.84,5.66,5.66,0,0,0-.81.12,3,3,0,0,0-2.27,2.3,15.19,15.19,0,0,0-.34,2,9.26,9.26,0,0,1-.22,1.28,3.1,3.1,0,0,1-1.78,2.05,2.29,2.29,0,0,1-.37.12.39.39,0,0,1-.48-.3A13.8,13.8,0,0,1,36.54,46.06Z"/><path class="cls-7" d="M36.23,31.74a1.2,1.2,0,0,1-.13-.21,4.26,4.26,0,0,0-.93.32,11.69,11.69,0,0,0-3.91,2.74,18.68,18.68,0,0,0-1.86,2.28l-.08.15a6.84,6.84,0,0,1,.06.91V44.7c0,.09,0,.18,0,.27s0-.08.05-.12a19.48,19.48,0,0,1,1-3,15.45,15.45,0,0,1,4-5.68,8.42,8.42,0,0,1,3.57-2l.56-.13c-.12-.12-.26-.23-.3-.27A19.27,19.27,0,0,1,36.23,31.74Z"/><path class="cls-8" d="M22.2,39a13,13,0,0,1,.42,2c.19,1.23.29,2.48.48,3.71.1.69-.15,1-.83,1a3.15,3.15,0,0,1-3-2.09,4.58,4.58,0,0,1-.29-1c-.09-.57-.2-1.14-.3-1.71a.93.93,0,0,0,.27-.12c.32-.18.63-.37.95-.54l1.83-.93A2.18,2.18,0,0,1,22.2,39Z"/><path class="cls-8" d="M25.89,45.73a5.45,5.45,0,0,1,.27,1c.33,1.39.62,2.8.89,4.21.06.3.09.61.15.92a3.54,3.54,0,0,1-1.64.82.65.65,0,0,1-.24,0,.38.38,0,0,1-.37-.31,1.16,1.16,0,0,1,0-.49c.29-2,.59-4,.92-6C25.86,45.81,25.88,45.77,25.89,45.73Z"/><path class="cls-9" d="M44.79,24.64a5.8,5.8,0,0,1-.47-1.5,6.83,6.83,0,0,1,.24-3.72,2.06,2.06,0,0,1,.21-.42c0-.07.11-.13.2-.1a.62.62,0,0,1,.53.37c.16.44.35.85.49,1.3a3.17,3.17,0,0,1,.12,1.23,4.64,4.64,0,0,0,.5,2.66,1.34,1.34,0,0,1,.07.18Q45.75,24.63,44.79,24.64Z"/><path class="cls-9" d="M42,24.63,42.22,23a17,17,0,0,1,.59-2.75,4.11,4.11,0,0,0,.17-.67,1.21,1.21,0,0,0-.49-1.17,3.74,3.74,0,0,0-1.15-.61,4.6,4.6,0,0,1,.58-1.37c.1-.17.12-.17.27,0a2.64,2.64,0,0,1,1,1.72,6,6,0,0,1,0,1.47,17.25,17.25,0,0,0-.07,3.05,8.49,8.49,0,0,0,.4,1.93s0,.07,0,.11Z"/><path class="cls-9" d="M40,17A3.48,3.48,0,0,1,39,16.1a2.55,2.55,0,0,1-.42-.61,7.17,7.17,0,0,1,.68-.78c.78-.89,1.6-1.73,2.44-2.55a1.65,1.65,0,0,1,.48.35.38.38,0,0,1,.11.51,2.76,2.76,0,0,1-.51.82,6.11,6.11,0,0,0-1.69,3A.18.18,0,0,1,40,17Z"/><path class="cls-10" d="M29.43,13.61c0-.72,0-1.44,0-2.16,0-.23,0-.45,0-.67.42.27.81.56,1.24.81a12.85,12.85,0,0,0,4.69,1.73,5.64,5.64,0,0,0,4.4-1,3.13,3.13,0,0,1,.58-.36.92.92,0,0,1,.81-.05,2,2,0,0,1,.56.28c-.84.83-1.66,1.66-2.44,2.55-.22.26-.48.5-.68.79a.82.82,0,0,0-.25.2,6.62,6.62,0,0,1-.56.51.71.71,0,0,0-.58-.25l-1.44-.07a8.86,8.86,0,0,1-1-.12,15.34,15.34,0,0,1-4.48-1.67A4.27,4.27,0,0,1,29.43,13.61Z"/><path class="cls-10" d="M39,8.76a7.1,7.1,0,0,1,.91.64c.08,0,.11.1,0,.2s-.28.46-.42.68a1.72,1.72,0,0,1-.46.47,5.45,5.45,0,0,1-3.92,1,10.38,10.38,0,0,1-3.62-1.24,11.75,11.75,0,0,1-2-1.31,1.14,1.14,0,0,1-.16-.15c0-.18,0-.37,0-.55V6.19c.33.3.62.64,1,.94a9.79,9.79,0,0,0,4.07,2.1l.1,0a1.58,1.58,0,0,0,.53.78.92.92,0,0,0,.69.21,3.11,3.11,0,0,0,1-.31c.53-.27,1.06-.52,1.58-.81A3.06,3.06,0,0,0,39,8.76Z"/><path class="cls-10" d="M29.34,2.44a6.65,6.65,0,0,1,.74.41,15.83,15.83,0,0,1,2,1.46,6.17,6.17,0,0,0,1.23.86c.06.36.18.71.27,1.06s.29.93.38,1.41a5.59,5.59,0,0,1-2.7-1.25,13.81,13.81,0,0,1-1.94-2.1c0-.1,0-.2,0-.3Z"/><path class="cls-10" d="M34,7.64c-.09-.48-.26-.93-.38-1.4s-.21-.71-.27-1.07a2.73,2.73,0,0,0,1.39,0,2.6,2.6,0,0,1,1.74.08,1.94,1.94,0,0,1,.74.56.84.84,0,0,1,.17.34.51.51,0,0,1-.19.61c-.22.16-.42.35-.63.52a2.36,2.36,0,0,1-1.76.53A4.41,4.41,0,0,1,34,7.64Z"/><path class="cls-10" d="M39,8.76a3.61,3.61,0,0,1-.65.39c-.52.28-1,.54-1.58.81a3.11,3.11,0,0,1-1,.31,1,1,0,0,1-.69-.21,1.56,1.56,0,0,1-.53-.78l.54,0a4.1,4.1,0,0,0,2.06-.47,4.12,4.12,0,0,1,.78-.32A1.15,1.15,0,0,1,39,8.76Z"/><path class="cls-11" d="M46,35.84,44.58,33.4a10.11,10.11,0,0,1-.76-1.55,2.28,2.28,0,0,1-.18-1c-.07-.08-.13-.18-.2-.26a16.43,16.43,0,0,1-2.68-4.53c-.18-.47-.33-1-.5-1.43-.53,0-1.49.06-2.13.06a0,0,0,0,0,0,0l.08.3,0,.16A25.63,25.63,0,0,0,40,29.45c.24.46.5.92.75,1.38a.55.55,0,0,1,.11.23.92.92,0,0,1-.37,0,12.75,12.75,0,0,0-4.17.39c-.08,0-.18,0-.25.1s.08.14.14.21a19.27,19.27,0,0,0,2.07,2.07s.18.15.3.27a8.21,8.21,0,0,1,5,.49A16.18,16.18,0,0,1,45.71,36a1.9,1.9,0,0,0,.47.33C46.21,36.12,46.05,36,46,35.84Z"/><path class="cls-12" d="M44.28,29.93a9.11,9.11,0,0,1-.91-1.32A17.49,17.49,0,0,1,41.7,24.8a1,1,0,0,1,0-.17h1.89a12.19,12.19,0,0,0,.83,1.75,12.2,12.2,0,0,0,2,2.45,1.22,1.22,0,0,1,.23.27l-.49.15A9.2,9.2,0,0,0,44.28,29.93Z"/><path class="cls-12" d="M44.79,24.64h1.9a10,10,0,0,0,1.18,1.42,3.18,3.18,0,0,1,1,2.34.68.68,0,0,0,0,.14,1.29,1.29,0,0,0-.71.19,5.54,5.54,0,0,1-1.24-1,9,9,0,0,1-2-2.88A.7.7,0,0,1,44.79,24.64Z"/><path class="cls-12" d="M43.53,38.66a3,3,0,0,1-.41-.39c-.45-.45-.89-.91-1.34-1.37a8.94,8.94,0,0,1-.71-.67,6.93,6.93,0,0,1,1.5.26c.2,0,.4.1.6.17a1,1,0,0,1,.74,1.22A1.44,1.44,0,0,1,43.53,38.66Z"/><path class="cls-13" d="M20.32,15.85c-.33-.4-.71-.75-1.06-1.13.27-.44.56-.86.8-1.31a10.16,10.16,0,0,0,1.15-3.62.65.65,0,0,1,0-.19.55.55,0,0,1,.28.09,5.24,5.24,0,0,0,1.2.44,1,1,0,0,0,1.08-.32A2.71,2.71,0,0,0,24.29,9c.23-.63.45-1.25.62-1.89a.18.18,0,0,1,.1-.12c1,.91,2,1.76,3,2.66.45.42,1,.79,1.42,1.18,0,.23,0,.45,0,.67a19.61,19.61,0,0,1,0,2.17.86.86,0,0,1-.23-.13c-.5-.33-1-.67-1.46-1A36.82,36.82,0,0,1,24.5,9.56c-.05-.06-.09-.14-.21-.14,0,.4-.06.8-.1,1.19s0,.82-.11,1.22A13,13,0,0,1,22,17l-.15.19-.23-.2Z"/><path class="cls-13" d="M15.89,6.55a1.26,1.26,0,0,1,.52.28c.78.47,1.56,1,2.37,1.41l.35.2a7.71,7.71,0,0,1-.47,2.44,8.23,8.23,0,0,1-.91,1.83.87.87,0,0,1-.19.23c-.88-.92-1.77-1.84-2.66-2.74A.46.46,0,0,1,15,10a6.37,6.37,0,0,0,.87-3.07C15.86,6.8,15.88,6.67,15.89,6.55Z"/><path class="cls-13" d="M13.37,4.77A4.66,4.66,0,0,1,13,8.17a.47.47,0,0,1-.06.09L10.66,5.93l-.87-.84a5.49,5.49,0,0,0-.26-1.5,5,5,0,0,1-.21-1.28.41.41,0,0,1,0-.27,7.68,7.68,0,0,1,.81.55l1.46,1,1.58,1.11A.32.32,0,0,0,13.37,4.77Z"/><path class="cls-13" d="M29.38,6.2V8.55c0,.18,0,.37,0,.55a5.12,5.12,0,0,1-.71-.6,22.54,22.54,0,0,1-2.58-2.94,6.92,6.92,0,0,1-.52-.69,1.52,1.52,0,0,1,0-.21c.07-.27.13-.54.19-.81a2.44,2.44,0,0,1,1.82.52,7,7,0,0,1,.8.75C28.73,5.46,29.07,5.82,29.38,6.2Z"/><path class="cls-13" d="M29.34,2.44V4c0,.1,0,.2,0,.3-.45-.48-.84-1-1.27-1.52a.28.28,0,0,1,.17-.45,2.14,2.14,0,0,0,.27-.06A.89.89,0,0,1,29.34,2.44Z"/><path class="cls-14" d="M25,6.94a.18.18,0,0,0-.1.12c-.17.64-.39,1.26-.62,1.88a3,3,0,0,1-.48.87,1,1,0,0,1-1.08.32,6.39,6.39,0,0,1-1.2-.44.55.55,0,0,0-.28-.09c0-.43,0-.87,0-1.3a13.6,13.6,0,0,0-.92-4.38,10.14,10.14,0,0,1-.55-1.72c0-.13,0-.27-.08-.4a1.82,1.82,0,0,1,1-1.73.58.58,0,0,1,.7.12,1.75,1.75,0,0,1,.39.64c.35.88.69,1.77,1,2.65A9.48,9.48,0,0,0,25,6.87.43.43,0,0,1,25,6.94Z"/><path class="cls-14" d="M15.89,6.54c0-.26-.05-.51-.08-.77A8.58,8.58,0,0,0,15.2,3.5,2.9,2.9,0,0,1,15,3.09a2.44,2.44,0,0,1,.61-2.6c.49-.54,1-.46,1.36.16a9.1,9.1,0,0,1,.49,1c.39.82.77,1.64,1.1,2.48a8.1,8.1,0,0,1,.51,2.38c0,.54.07,1.08.06,1.61a.91.91,0,0,1,0,.33l-.35-.21C18,7.8,17.19,7.3,16.41,6.82A1.55,1.55,0,0,0,15.89,6.54Z"/><path class="cls-14" d="M22.2,39a3.13,3.13,0,0,0-.51.19l-1.83.94c-.32.17-.63.36-.94.53a.77.77,0,0,1-.28.12c-.13-.44-.24-.89-.39-1.32a11,11,0,0,0-1.14-2.4C17.06,37,17,37,17,36.89s.16-.11.23-.18c.8-.81,1.6-1.63,2.38-2.46l.24-.23a7.15,7.15,0,0,1,.72,1.07,15,15,0,0,1,1.6,3.76Z"/><path class="cls-15" d="M29.39,44.7q0-3.37,0-6.77a7.07,7.07,0,0,0-.06-.91,7.11,7.11,0,0,0-1.08,2,39.31,39.31,0,0,0-2.62-6.84,26.25,26.25,0,0,0-1.56-2.47c-.55.51-2.51,2.47-2.52,2.48a1.12,1.12,0,0,0,.2.33c1.56,2.24,3.92,8.93,4.15,13.24a5.78,5.78,0,0,1,.27,1c.33,1.39.62,2.79.89,4.2.06.31.09.62.15.93a.92.92,0,0,0,.22-.17,3.76,3.76,0,0,0,.93-1.48,11.42,11.42,0,0,0,.38-1.42c.17-.77.24-1.57.38-2.35.09-.49.19-1,.28-1.47Z"/><path class="cls-14" d="M13.37,4.77a.32.32,0,0,1-.18-.06L11.61,3.6l-1.46-1A7.68,7.68,0,0,0,9.34,2,1.75,1.75,0,0,1,10.7.43a1.14,1.14,0,0,1,.37,0,.85.85,0,0,1,.77.4,8.72,8.72,0,0,1,.76,1.53A14.94,14.94,0,0,1,13.37,4.77Z"/><path class="cls-14" d="M25.78,3.84c-.06.27-.12.55-.19.82a1.52,1.52,0,0,0,0,.21c-.23-.25-.43-.54-.66-.84A2.78,2.78,0,0,1,25.78,3.84Z"/><path class="cls-16" d="M44.28,29.93a9.2,9.2,0,0,1,1.81-.68l.49-.16a3.67,3.67,0,0,1,1.58,3.06,3.75,3.75,0,0,1,0,.47c0,.12-.07.15-.19.11a5.4,5.4,0,0,1-.76-.29,6.88,6.88,0,0,1-2-1.45A7.64,7.64,0,0,1,44.28,29.93Z"/><path class="cls-16" d="M46.18,36.33c0-.2-.13-.33-.22-.49l-1.38-2.43a10.69,10.69,0,0,1-.76-1.56,2.28,2.28,0,0,1-.18-1l.19.2c.48.54,1,1.06,1.51,1.56A9.69,9.69,0,0,1,46.61,34a4.33,4.33,0,0,1,.76,1.76,1.8,1.8,0,0,1-.07.95c0,.09-.06.12-.15.11a1.34,1.34,0,0,1-.9-.4.06.06,0,0,0-.07-.07Z"/><path class="cls-16" d="M48.1,28.72a1.3,1.3,0,0,1,.71-.2,2.71,2.71,0,0,1-.05.56A2.61,2.61,0,0,1,48.1,28.72Z"/><path class="cls-17" d="M46.18,36.33s.07,0,.07.07A.1.1,0,0,1,46.18,36.33Z"/><path class="cls-18" d="M14.15,15.82a5.77,5.77,0,0,1-1.22.53,30.2,30.2,0,0,1-3.75,1l-1.32.32a.89.89,0,0,1-1-.56A2.35,2.35,0,0,1,7,15.43a3.18,3.18,0,0,1,2.27-1.87l1.24-.32a9.64,9.64,0,0,0,1.93-.75.5.5,0,0,0,.09.23c.32.58.65,1.15,1,1.73A13.57,13.57,0,0,1,14.15,15.82Z"/><path class="cls-18" d="M11,10.33a4.75,4.75,0,0,1-1.43.61c-.83.23-1.68.35-2.53.5l-1.88.31a.71.71,0,0,1-.94-.63A2.59,2.59,0,0,1,5.36,8.29a4,4,0,0,1,1.51-.51A4.94,4.94,0,0,0,8.8,7l.13.17c.67,1,1.35,2,2,3A.3.3,0,0,1,11,10.33Z"/><path class="cls-19" d="M15,18.22a1.23,1.23,0,0,1-.32.17,13.34,13.34,0,0,1-3.52,1.3,24.46,24.46,0,0,1-3.12.53,37.45,37.45,0,0,1-4.71.17,16,16,0,0,1-2.48,0,2.32,2.32,0,0,0-.53.05c-.27.05-.31.1-.33.38a2.35,2.35,0,0,0,.69,1.8H1c.72-.14,1.45-.27,2.18-.39s1.53-.29,2.29-.46c1.13-.24,2.27-.5,3.41-.76l.45-.11.56-.14.89-.23c.65-.16,1.3-.33,1.94-.52a7.1,7.1,0,0,0,1.6-.63l.08-.05a.05.05,0,0,1,0,0l0,0,.06,0h0s0,0,.06-.05h0l.06-.06h0l.06-.06h0a1.66,1.66,0,0,0,.3-.74v0C15,18.26,15,18.22,15,18.22Z"/><path class="cls-19" d="M14.59,19.18Z"/><path class="cls-19" d="M14.66,19.12h0Z"/><path class="cls-19" d="M14.45,19.28l0,0Z"/><path class="cls-19" d="M14.53,19.23l0,0Z"/><path class="cls-19" d="M14.38,19.34l-.08,0Z"/><path class="cls-20" d="M14.9,10.2c.9.9,1.79,1.81,2.66,2.74a2.9,2.9,0,0,1-.49.66,9.19,9.19,0,0,1-2.66,2.11l-.25.11c-.2-.48-.46-.92-.7-1.38s-.65-1.15-1-1.72a.65.65,0,0,1-.09-.23,10.82,10.82,0,0,0,1.31-.94,7,7,0,0,0,1-1.19C14.8,10.3,14.83,10.23,14.9,10.2Z"/><path class="cls-20" d="M9.79,5.09l.87.84L13,8.26a3.53,3.53,0,0,1-.64,1,5.07,5.07,0,0,1-1.25,1.06l-.1,0a.32.32,0,0,0-.06-.15c-.65-1-1.32-2-2-3a1.09,1.09,0,0,0-.13-.17,2.6,2.6,0,0,0,.89-1.36A4.17,4.17,0,0,0,9.79,5.09Z"/><path class="cls-21" d="M21.63,17l-1.31-1.16c-.33-.4-.71-.75-1.06-1.13l-.16.18a10,10,0,0,1-2.94,2.68L15,18.22s0,0,0,.11a1.67,1.67,0,0,1-.3.73h0l-.06.06h0l-.06.05h0l-.06,0s0,0,0,0l-.06,0,0,0s0,0,0,0l-.08,0a7.1,7.1,0,0,1-1.6.63c-.64.19-1.29.37-1.94.53l-.89.22-.56.15L8.86,21l-3.41.76c-.76.16-1.52.32-2.29.45s-1.46.25-2.18.39a1.31,1.31,0,0,1-.28,0,3.4,3.4,0,0,0,.83.86,4.33,4.33,0,0,0,1.7.82H16.55v-.87a4.94,4.94,0,0,0-.64-.35,2.33,2.33,0,0,1-.59-.44c-.09-.08-.09-.15,0-.22A2.71,2.71,0,0,1,16,22l1.22-.64a15,15,0,0,0,3.9-3.1,7,7,0,0,0,.78-1Z"/><path class="cls-20" d="M16.56,23.42a10.92,10.92,0,0,1,1.52.88H16.56Z"/><path class="cls-22" d="M74.67,18.55a.44.44,0,0,1,.51.5V21.2a.45.45,0,0,1-.51.51H65a5.7,5.7,0,0,0-1.43.14,2,2,0,0,0-.91.5,2.17,2.17,0,0,0-.48,1A6.92,6.92,0,0,0,62,24.8v.45H74.55a.44.44,0,0,1,.49.5v1.8a.44.44,0,0,1-.49.5H62V34c0,.34-.16.5-.49.5H59.13a.44.44,0,0,1-.51-.5V24.54A9.29,9.29,0,0,1,59,21.77a4.08,4.08,0,0,1,1.09-1.85,4.54,4.54,0,0,1,1.93-1,10.73,10.73,0,0,1,2.87-.33Z"/><path class="cls-22" d="M79.82,18.55c.32,0,.48.16.48.5v9.06a6.34,6.34,0,0,0,.15,1.51,2.17,2.17,0,0,0,.48,1,1.79,1.79,0,0,0,.9.49,5.78,5.78,0,0,0,1.44.15h9a.44.44,0,0,1,.49.5V34a.44.44,0,0,1-.49.5H83.14a11.34,11.34,0,0,1-2.88-.32,4,4,0,0,1-3-2.89,9.85,9.85,0,0,1-.34-2.79v-9.4a.44.44,0,0,1,.51-.5Z"/><path class="cls-22" d="M91.69,18.55a.61.61,0,0,1,.54.27l6,8.2,6-8.2a.61.61,0,0,1,.54-.27h2.92a.25.25,0,0,1,.24.15.28.28,0,0,1-.05.3l-8,10.59V34a.44.44,0,0,1-.49.5H96.93a.45.45,0,0,1-.51-.5V29.59L88.5,19a.31.31,0,0,1,0-.3.24.24,0,0,1,.25-.15Z"/><path class="cls-22" d="M112,18.55a.44.44,0,0,1,.49.5v9.06a7,7,0,0,0,.14,1.51,2.17,2.17,0,0,0,.48,1,1.86,1.86,0,0,0,.91.49,5.64,5.64,0,0,0,1.43.15h9a.44.44,0,0,1,.49.5V34a.44.44,0,0,1-.49.5h-9.16a11.34,11.34,0,0,1-2.88-.32,4.28,4.28,0,0,1-1.92-1,4.22,4.22,0,0,1-1.1-1.86,9.85,9.85,0,0,1-.34-2.79v-9.4a.44.44,0,0,1,.51-.5Z"/><path class="cls-22" d="M129.49,18.55c.33,0,.49.16.49.5V34a.44.44,0,0,1-.49.5h-2.41a.45.45,0,0,1-.51-.5V19.05a.44.44,0,0,1,.51-.5Z"/><path class="cls-22" d="M149.86,18.55a.44.44,0,0,1,.49.5v2.22c0,.35-.17.53-.49.53H138.69a6.21,6.21,0,0,0-1.43.14,1.91,1.91,0,0,0-.91.5,2.13,2.13,0,0,0-.48.95,6.82,6.82,0,0,0-.14,1.5v3.27a7.05,7.05,0,0,0,.14,1.51,2.08,2.08,0,0,0,.48.95,1.83,1.83,0,0,0,.91.5,5.64,5.64,0,0,0,1.43.15H146a1,1,0,0,0,.85-.31,1.64,1.64,0,0,0,.27-1.08V28c0-.19-.09-.29-.27-.29h-6.53c-.32,0-.49-.17-.49-.52V25.52c0-.34.16-.52.49-.52h9.29a.6.6,0,0,1,.67.68V31a4,4,0,0,1-.71,2.69,2.65,2.65,0,0,1-2.05.78h-9a10.9,10.9,0,0,1-2.88-.32,4.28,4.28,0,0,1-1.92-1,4.22,4.22,0,0,1-1.1-1.86,9.78,9.78,0,0,1-.34-2.78V24.54a9.66,9.66,0,0,1,.34-2.77,4.18,4.18,0,0,1,1.1-1.85,4.44,4.44,0,0,1,1.92-1,10.87,10.87,0,0,1,2.88-.33Z"/><path class="cls-22" d="M155.61,18.55c.33,0,.49.16.49.5V25h10.43v-5.9c0-.34.16-.5.49-.5h2.41a.44.44,0,0,1,.51.5V34a.45.45,0,0,1-.51.5H167a.44.44,0,0,1-.49-.5v-6H156.1v6a.44.44,0,0,1-.49.5H153.2a.45.45,0,0,1-.51-.5V19.05a.44.44,0,0,1,.51-.5Z"/><path class="cls-22" d="M189.39,18.55a.44.44,0,0,1,.51.5v2.22c0,.35-.16.53-.51.53h-7V34a.44.44,0,0,1-.49.5h-2.43A.44.44,0,0,1,179,34V21.8h-7a.46.46,0,0,1-.51-.53V19.05a.44.44,0,0,1,.51-.5Z"/><path class="cls-22" d="M206.93,18.55c.33,0,.49.16.49.5V21.2c0,.34-.16.51-.49.51H195.76a1.11,1.11,0,0,0-.91.33,1.48,1.48,0,0,0-.27.94v.77c0,.85.39,1.27,1.16,1.27h8.36A3.9,3.9,0,0,1,207,26a4,4,0,0,1,1,2.9v1.81a3.73,3.73,0,0,1-1,2.68,3.92,3.92,0,0,1-3,1H191.71a.45.45,0,0,1-.51-.5V31.79a.45.45,0,0,1,.51-.5h11.7a1.07,1.07,0,0,0,.91-.34,1.47,1.47,0,0,0,.27-.93v-.93c0-.85-.39-1.27-1.16-1.27h-8.36a3.92,3.92,0,0,1-2.92-1,4,4,0,0,1-1-2.9V22.25a3.76,3.76,0,0,1,1-2.68,3.93,3.93,0,0,1,3-1Z"/></g></g></svg>