<svg xmlns="http://www.w3.org/2000/svg" viewBox="0 0 18 18"><defs><style>.cls-1{fill:#fff;fill-rule:evenodd;}</style></defs><title>phone</title><g id="Layer_2" data-name="Layer 2"><g id="Layer_1-2" data-name="Layer 1"><path class="cls-1" d="M6.17,8.85l2.62,2.54a2.42,2.42,0,0,0,2.74.43l.3-.14a2.45,2.45,0,0,1,2.75.43l3.25,3.16a.56.56,0,0,1,0,.81.57.57,0,0,1-.16.11l-2.62,1.28a5.36,5.36,0,0,1-6-.95L1.89,9.59A6.14,6.14,0,0,1,.33,3.18l1-2.79a.6.6,0,0,1,1-.22L5.43,3.23a2.25,2.25,0,0,1,.44,2.66l-.15.29A2.26,2.26,0,0,0,6.17,8.85Z"/></g></g></svg>