<svg xmlns="http://www.w3.org/2000/svg" viewBox="0 0 60 60"><defs><style>.cls-1{fill:#188f53;}.cls-2{fill:#fff;fill-rule:evenodd;}</style></defs><title>youtube</title><g id="Layer_2" data-name="Layer 2"><g id="Layer_1-2" data-name="Layer 1"><path class="cls-1" d="M30,38l-1.3-1.15c-4.64-4.07-7.7-6.76-7.7-10A4.83,4.83,0,0,1,26,22,5.47,5.47,0,0,1,30,23.82a5.47,5.47,0,0,1,4-1.82,4.83,4.83,0,0,1,5,4.8c0,3.29-3.06,6-7.69,10.06Z"/><rect width="60" height="60" rx="20"/><path class="cls-2" d="M37,24.39A2.25,2.25,0,0,1,38.63,26,23.08,23.08,0,0,1,39,30.32a23.82,23.82,0,0,1-.37,4.33A2.26,2.26,0,0,1,37,36.23a54.83,54.83,0,0,1-7,.37,53.48,53.48,0,0,1-7-.38,2.28,2.28,0,0,1-1.59-1.59,25.52,25.52,0,0,1,0-8.66A2.31,2.31,0,0,1,23,24.37,54.83,54.83,0,0,1,30,24,52,52,0,0,1,37,24.39ZM32.89,30.3,28.21,33V27.6Z"/></g></g></svg>